<mxfile host="app.diagrams.net" modified="2023-06-30T11:36:53.690Z" agent="Mozilla/5.0 (Macintosh; Intel Mac OS X 10_15_7) AppleWebKit/537.36 (KHTML, like Gecko) Chrome/111.0.0.0 Safari/537.36" version="21.5.2" etag="XlPNd-ws_GquN6GoNm7M" type="github">
  <diagram name="第 1 页" id="OpPBmDGLVDZrMC9oEPaX">
    <mxGraphModel>
      <root>
        <mxCell id="0" />
        <mxCell id="1" parent="0" />
      </root>
    </mxGraphModel>
  </diagram>
</mxfile>
